<?xml version="1.0" encoding="UTF-8"?>
<svg width="25px" height="25px" viewBox="0 0 25 25" version="1.1" xmlns="http://www.w3.org/2000/svg" xmlns:xlink="http://www.w3.org/1999/xlink">
    <!-- Generator: Sketch 60.1 (88133) - https://sketch.com -->
    <title>iconmonstr-linkedin-3</title>
    <desc>Created with Sketch.</desc>
    <g id="Page-1" stroke="none" stroke-width="1" fill="none" fill-rule="evenodd">
        <g id="Desktop-HD" transform="translate(-1180.000000, -879.000000)" fill="#202020" fill-rule="nonzero">
            <g id="iconmonstr-linkedin-3" transform="translate(1180.412384, 879.000000)">
                <path d="M19.4495392,0 L5.1182998,0 C2.29197465,0 0,2.29197465 0,5.1182998 L0,19.4495392 C0,22.2758644 2.29197465,24.567839 5.1182998,24.567839 L19.4495392,24.567839 C22.276888,24.567839 24.567839,22.2758644 24.567839,19.4495392 L24.567839,5.1182998 C24.567839,2.29197465 22.276888,0 19.4495392,0 Z M8.18927967,19.4495392 L5.1182998,19.4495392 L5.1182998,8.18927967 L8.18927967,8.18927967 L8.18927967,19.4495392 Z M6.65378973,6.89127884 C5.66493421,6.89127884 4.86238481,6.08258748 4.86238481,5.08554268 C4.86238481,4.08849788 5.66493421,3.27980651 6.65378973,3.27980651 C7.64264525,3.27980651 8.44519466,4.08849788 8.44519466,5.08554268 C8.44519466,6.08258748 7.64366891,6.89127884 6.65378973,6.89127884 Z M20.4731992,19.4495392 L17.4022193,19.4495392 L17.4022193,13.7129488 C17.4022193,10.2652621 13.3075795,10.5262954 13.3075795,13.7129488 L13.3075795,19.4495392 L10.2365996,19.4495392 L10.2365996,8.18927967 L13.3075795,8.18927967 L13.3075795,9.9960395 C14.7365996,7.34885485 20.4731992,7.15333579 20.4731992,12.5306216 L20.4731992,19.4495392 Z" id="Shape"></path>
            </g>
        </g>
    </g>
</svg>