<?xml version="1.0" encoding="UTF-8"?>
<svg width="26px" height="22px" viewBox="0 0 26 22" version="1.1" xmlns="http://www.w3.org/2000/svg" xmlns:xlink="http://www.w3.org/1999/xlink">
    <!-- Generator: Sketch 60.1 (88133) - https://sketch.com -->
    <title>iconmonstr-medium-1</title>
    <desc>Created with Sketch.</desc>
    <g id="Page-1" stroke="none" stroke-width="1" fill="none" fill-rule="evenodd">
        <g id="Desktop-HD" transform="translate(-1073.000000, -880.000000)" fill="#202020">
            <g id="iconmonstr-medium-1" transform="translate(1073.000000, 880.800000)">
                <path d="M3.07367994,4.19795992 C3.10607994,3.87935992 2.98403994,3.56507993 2.74643995,3.35123993 L0.327239993,0.435239991 L0.327239993,-4.4408921e-16 L7.84187984,-4.4408921e-16 L13.6501197,12.7385997 L18.7563596,-4.4408921e-16 L25.9199995,-4.4408921e-16 L25.9199995,0.435239991 L23.8507195,2.41919995 C23.6725195,2.55527995 23.5839595,2.77883994 23.6206795,3.00023994 L23.6206795,17.5780797 C23.5839595,17.7983996 23.6725195,18.0219596 23.8507195,18.1580396 L25.8713995,20.1419996 L25.8713995,20.5772396 L15.7064397,20.5772396 L15.7064397,20.1419996 L17.8005596,18.1094396 C18.0057596,17.9042396 18.0057596,17.8437596 18.0057596,17.5294797 L18.0057596,5.74667989 L12.1856398,20.5297196 L11.3993998,20.5297196 L4.62239991,5.74667989 L4.62239991,15.6545997 C4.56623991,16.0703997 4.70447991,16.4905197 4.9971599,16.7907597 L7.71983985,20.0933996 L7.71983985,20.5297196 L-6.21724894e-15,20.5297196 L-6.21724894e-15,20.0933996 L2.72267995,16.7907597 C3.01427994,16.4894397 3.14387994,16.0671597 3.07367994,15.6545997 L3.07367994,4.19795992 L3.07367994,4.19795992 Z" id="Path"></path>
            </g>
        </g>
    </g>
</svg>