<?xml version="1.0" encoding="UTF-8"?>
<svg width="31px" height="19px" viewBox="0 0 31 19" version="1.1" xmlns="http://www.w3.org/2000/svg" xmlns:xlink="http://www.w3.org/1999/xlink">
    <!-- Generator: Sketch 60.1 (88133) - https://sketch.com -->
    <title>iconmonstr-behance-1</title>
    <desc>Created with Sketch.</desc>
    <g id="Page-1" stroke="none" stroke-width="1" fill="none" fill-rule="evenodd">
        <g id="Desktop-HD" transform="translate(-1124.000000, -882.000000)" fill="#202020" fill-rule="nonzero">
            <g id="iconmonstr-behance-1" transform="translate(1124.606192, 882.000000)">
                <path d="M27.7635577,2.52395979 L18.9296984,2.52395979 L18.9296984,5.32907052e-15 L27.7635577,5.32907052e-15 L27.7635577,2.52395979 Z M29.941735,15.1437587 C29.3839399,16.7805467 27.3811778,18.9296984 23.5043755,18.9296984 C19.6250493,18.9296984 16.4827194,16.7477352 16.4827194,11.7679625 C16.4827194,6.83362113 19.4168227,4.29704154 23.3807015,4.29704154 C27.2701236,4.29704154 29.6451697,6.54588972 30.1638435,9.88256456 C30.2622779,10.5211264 30.3013993,11.3817967 30.2837315,12.5832015 L20.1538189,12.5832015 C20.3178763,16.635419 24.5492949,16.7628789 25.9437827,15.1437587 L29.941735,15.1437587 Z M20.2421575,10.0958392 L26.5078877,10.0958392 C26.3753798,8.14355626 25.0742785,7.29550577 23.3819635,7.29550577 C21.531901,7.29550577 20.5084353,8.26470633 20.2421575,10.0958392 Z M8.159962,18.9145547 L1.77635684e-14,18.9145547 L1.77635684e-14,0.0265015778 L8.77454621,0.0265015778 C15.6851481,0.128721949 15.816394,6.89672013 12.2071315,8.74173473 C16.5748439,10.3318294 16.7212336,18.9145547 8.159962,18.9145547 Z M3.78593969,7.57187937 L8.30887563,7.57187937 C11.4739212,7.57187937 11.9761892,3.78593969 7.9151379,3.78593969 L3.78593969,3.78593969 L3.78593969,7.57187937 Z M8.06531351,11.3578191 L3.78593969,11.3578191 L3.78593969,15.1639504 L8.00221451,15.1639504 C11.8575631,15.1639504 11.6215729,11.3578191 8.06531351,11.3578191 L8.06531351,11.3578191 Z" id="Shape"></path>
            </g>
        </g>
    </g>
</svg>