<?xml version="1.0" encoding="UTF-8"?>
<svg width="27px" height="21px" viewBox="0 0 27 21" version="1.1" xmlns="http://www.w3.org/2000/svg" xmlns:xlink="http://www.w3.org/1999/xlink">
    <!-- Generator: Sketch 60.1 (88133) - https://sketch.com -->
    <title>noun_Email_2522725</title>
    <desc>Created with Sketch.</desc>
    <g id="Page-1" stroke="none" stroke-width="1" fill="none" fill-rule="evenodd">
        <g id="Desktop-HD" transform="translate(-1230.000000, -881.000000)" fill="#202020" fill-rule="nonzero">
            <g id="noun_Email_2522725" transform="translate(1230.218576, 881.400000)">
                <path d="M25.3528706,0.0590976004 L1.24104961,0.0590976004 C0.443232003,0.0590976004 0,0.590976004 0,1.35924481 L0,2.00931841 C0,2.15706242 0.0590976004,2.27525762 0.177292801,2.36390402 L13.0014721,10.5489217 C13.2083137,10.6671169 13.4742529,10.6671169 13.6515457,10.5489217 L26.4166274,2.21616002 C26.5348226,2.12751362 26.5939202,2.00931841 26.5939202,1.86157441 L26.5939202,1.35924481 C26.5939202,0.590976004 26.1506882,0.0590976004 25.3528706,0.0590976004 Z" id="Path"></path>
                <path d="M26.2688834,4.93464964 L13.8879361,12.9719233 C13.6810945,13.0901185 13.5628993,13.1492161 13.3265089,13.1492161 C13.1196673,13.1492161 12.9719233,13.0901185 12.7946305,12.9719233 L0.325036802,5.05284484 C0.177292801,4.96419844 0,5.05284484 0,5.23013764 L0,18.7339393 C0,19.5317569 0.443232003,20.0340865 1.24104961,20.0340865 L25.3528706,20.0340865 C26.1506882,20.0340865 26.5939202,19.5022081 26.5939202,18.7339393 L26.5939202,5.11194244 C26.5939202,4.93464964 26.4166274,4.81645444 26.2688834,4.93464964 Z" id="Path"></path>
            </g>
        </g>
    </g>
</svg>